<mxfile host="app.diagrams.net" modified="2023-10-02T17:33:05.974Z" agent="Mozilla/5.0 (Windows NT 10.0; Win64; x64) AppleWebKit/537.36 (KHTML, like Gecko) Chrome/117.0.0.0 Safari/537.36" etag="kFNgYcx4TAfkr1GnmW9h" version="22.0.0" type="device">
  <diagram name="Page-1" id="jAtOohAtyJOy5rDdDgOM">
    <mxGraphModel dx="1613" dy="1768" grid="1" gridSize="10" guides="1" tooltips="1" connect="1" arrows="1" fold="1" page="1" pageScale="1" pageWidth="850" pageHeight="1100" math="0" shadow="0">
      <root>
        <mxCell id="0" />
        <mxCell id="1" parent="0" />
        <mxCell id="3FL0h8J0QItbjly5wemY-3" style="edgeStyle=orthogonalEdgeStyle;rounded=0;orthogonalLoop=1;jettySize=auto;html=1;exitX=0.5;exitY=1;exitDx=0;exitDy=0;entryX=0.5;entryY=0;entryDx=0;entryDy=0;" parent="1" source="3FL0h8J0QItbjly5wemY-1" target="3FL0h8J0QItbjly5wemY-2" edge="1">
          <mxGeometry relative="1" as="geometry" />
        </mxCell>
        <mxCell id="3FL0h8J0QItbjly5wemY-1" value="2" style="ellipse;" parent="1" vertex="1">
          <mxGeometry x="360" y="30" width="30" height="30" as="geometry" />
        </mxCell>
        <mxCell id="3FL0h8J0QItbjly5wemY-10" style="edgeStyle=orthogonalEdgeStyle;rounded=0;orthogonalLoop=1;jettySize=auto;html=1;exitX=0;exitY=0.5;exitDx=0;exitDy=0;entryX=0.5;entryY=0;entryDx=0;entryDy=0;" parent="1" source="3FL0h8J0QItbjly5wemY-2" target="3FL0h8J0QItbjly5wemY-5" edge="1">
          <mxGeometry relative="1" as="geometry" />
        </mxCell>
        <mxCell id="3FL0h8J0QItbjly5wemY-12" value="No" style="edgeLabel;html=1;align=center;verticalAlign=middle;resizable=0;points=[];" parent="3FL0h8J0QItbjly5wemY-10" vertex="1" connectable="0">
          <mxGeometry x="-0.309" y="1" relative="1" as="geometry">
            <mxPoint as="offset" />
          </mxGeometry>
        </mxCell>
        <mxCell id="3FL0h8J0QItbjly5wemY-13" style="edgeStyle=orthogonalEdgeStyle;rounded=0;orthogonalLoop=1;jettySize=auto;html=1;exitX=1;exitY=0.5;exitDx=0;exitDy=0;entryX=0.5;entryY=0;entryDx=0;entryDy=0;" parent="1" source="3FL0h8J0QItbjly5wemY-2" target="3FL0h8J0QItbjly5wemY-11" edge="1">
          <mxGeometry relative="1" as="geometry" />
        </mxCell>
        <mxCell id="3FL0h8J0QItbjly5wemY-14" value="Yes" style="edgeLabel;html=1;align=center;verticalAlign=middle;resizable=0;points=[];" parent="3FL0h8J0QItbjly5wemY-13" vertex="1" connectable="0">
          <mxGeometry x="-0.2558" y="3" relative="1" as="geometry">
            <mxPoint as="offset" />
          </mxGeometry>
        </mxCell>
        <mxCell id="3FL0h8J0QItbjly5wemY-2" value="Already have &#xa;an account?" style="rhombus;" parent="1" vertex="1">
          <mxGeometry x="325" y="90" width="100" height="100" as="geometry" />
        </mxCell>
        <mxCell id="3FL0h8J0QItbjly5wemY-7" style="edgeStyle=orthogonalEdgeStyle;rounded=0;orthogonalLoop=1;jettySize=auto;html=1;exitX=0.5;exitY=1;exitDx=0;exitDy=0;entryX=0.5;entryY=0;entryDx=0;entryDy=0;" parent="1" source="3FL0h8J0QItbjly5wemY-5" target="3FL0h8J0QItbjly5wemY-6" edge="1">
          <mxGeometry relative="1" as="geometry" />
        </mxCell>
        <mxCell id="3FL0h8J0QItbjly5wemY-5" value="Register" style="rounded=1;whiteSpace=wrap;html=1;" parent="1" vertex="1">
          <mxGeometry x="140" y="210" width="80" height="40" as="geometry" />
        </mxCell>
        <mxCell id="3FL0h8J0QItbjly5wemY-8" style="edgeStyle=orthogonalEdgeStyle;rounded=0;orthogonalLoop=1;jettySize=auto;html=1;exitX=1;exitY=0.5;exitDx=0;exitDy=0;entryX=1;entryY=0.5;entryDx=0;entryDy=0;" parent="1" source="3FL0h8J0QItbjly5wemY-6" target="3FL0h8J0QItbjly5wemY-5" edge="1">
          <mxGeometry relative="1" as="geometry">
            <Array as="points">
              <mxPoint x="270" y="330" />
              <mxPoint x="270" y="230" />
            </Array>
          </mxGeometry>
        </mxCell>
        <mxCell id="3FL0h8J0QItbjly5wemY-9" value="No" style="edgeLabel;html=1;align=center;verticalAlign=middle;resizable=0;points=[];" parent="3FL0h8J0QItbjly5wemY-8" vertex="1" connectable="0">
          <mxGeometry x="-0.0932" y="4" relative="1" as="geometry">
            <mxPoint as="offset" />
          </mxGeometry>
        </mxCell>
        <mxCell id="3FL0h8J0QItbjly5wemY-48" style="edgeStyle=orthogonalEdgeStyle;rounded=0;orthogonalLoop=1;jettySize=auto;html=1;exitX=0.5;exitY=1;exitDx=0;exitDy=0;entryX=0.5;entryY=0;entryDx=0;entryDy=0;" parent="1" source="3FL0h8J0QItbjly5wemY-6" target="3FL0h8J0QItbjly5wemY-46" edge="1">
          <mxGeometry relative="1" as="geometry" />
        </mxCell>
        <mxCell id="3FL0h8J0QItbjly5wemY-53" value="Yes" style="edgeLabel;html=1;align=center;verticalAlign=middle;resizable=0;points=[];" parent="3FL0h8J0QItbjly5wemY-48" vertex="1" connectable="0">
          <mxGeometry x="-0.2138" y="5" relative="1" as="geometry">
            <mxPoint x="-6" y="1" as="offset" />
          </mxGeometry>
        </mxCell>
        <mxCell id="3FL0h8J0QItbjly5wemY-6" value="Authentication?" style="rhombus;" parent="1" vertex="1">
          <mxGeometry x="130" y="280" width="100" height="100" as="geometry" />
        </mxCell>
        <mxCell id="3FL0h8J0QItbjly5wemY-16" style="edgeStyle=orthogonalEdgeStyle;rounded=0;orthogonalLoop=1;jettySize=auto;html=1;exitX=0.5;exitY=1;exitDx=0;exitDy=0;entryX=0.5;entryY=0;entryDx=0;entryDy=0;" parent="1" source="3FL0h8J0QItbjly5wemY-11" target="3FL0h8J0QItbjly5wemY-15" edge="1">
          <mxGeometry relative="1" as="geometry" />
        </mxCell>
        <mxCell id="3FL0h8J0QItbjly5wemY-11" value="Sign-in" style="rounded=1;whiteSpace=wrap;html=1;" parent="1" vertex="1">
          <mxGeometry x="530" y="210" width="80" height="40" as="geometry" />
        </mxCell>
        <mxCell id="3FL0h8J0QItbjly5wemY-15" value="Select role" style="rounded=1;whiteSpace=wrap;html=1;" parent="1" vertex="1">
          <mxGeometry x="530" y="280" width="80" height="40" as="geometry" />
        </mxCell>
        <mxCell id="3FL0h8J0QItbjly5wemY-17" value="" style="html=1;points=[];perimeter=orthogonalPerimeter;fillColor=strokeColor;rotation=90;" parent="1" vertex="1">
          <mxGeometry x="572.8" y="249.05" width="5" height="241.88" as="geometry" />
        </mxCell>
        <mxCell id="3FL0h8J0QItbjly5wemY-18" style="edgeStyle=orthogonalEdgeStyle;rounded=0;orthogonalLoop=1;jettySize=auto;html=1;exitX=0.5;exitY=1;exitDx=0;exitDy=0;" parent="1" source="3FL0h8J0QItbjly5wemY-15" edge="1">
          <mxGeometry relative="1" as="geometry">
            <mxPoint x="570" y="370" as="targetPoint" />
          </mxGeometry>
        </mxCell>
        <mxCell id="3FL0h8J0QItbjly5wemY-22" style="edgeStyle=orthogonalEdgeStyle;rounded=0;orthogonalLoop=1;jettySize=auto;html=1;exitX=0.5;exitY=1;exitDx=0;exitDy=0;" parent="1" source="3FL0h8J0QItbjly5wemY-19" edge="1">
          <mxGeometry relative="1" as="geometry">
            <mxPoint x="480.2352941176473" y="490" as="targetPoint" />
          </mxGeometry>
        </mxCell>
        <mxCell id="3FL0h8J0QItbjly5wemY-19" value="Enter Username &amp;amp; Password" style="rounded=1;whiteSpace=wrap;html=1;" parent="1" vertex="1">
          <mxGeometry x="430" y="420" width="100" height="40" as="geometry" />
        </mxCell>
        <mxCell id="3FL0h8J0QItbjly5wemY-28" style="edgeStyle=orthogonalEdgeStyle;rounded=0;orthogonalLoop=1;jettySize=auto;html=1;exitX=0.5;exitY=1;exitDx=0;exitDy=0;entryX=0.5;entryY=0;entryDx=0;entryDy=0;" parent="1" source="3FL0h8J0QItbjly5wemY-20" target="3FL0h8J0QItbjly5wemY-27" edge="1">
          <mxGeometry relative="1" as="geometry" />
        </mxCell>
        <mxCell id="3FL0h8J0QItbjly5wemY-20" value="Forgot Password?" style="rounded=1;whiteSpace=wrap;html=1;" parent="1" vertex="1">
          <mxGeometry x="640" y="420" width="80" height="40" as="geometry" />
        </mxCell>
        <mxCell id="3FL0h8J0QItbjly5wemY-23" style="edgeStyle=orthogonalEdgeStyle;rounded=0;orthogonalLoop=1;jettySize=auto;html=1;exitX=0;exitY=0.5;exitDx=0;exitDy=0;entryX=0;entryY=0.5;entryDx=0;entryDy=0;" parent="1" source="3FL0h8J0QItbjly5wemY-21" target="3FL0h8J0QItbjly5wemY-11" edge="1">
          <mxGeometry relative="1" as="geometry">
            <Array as="points">
              <mxPoint x="380" y="526" />
              <mxPoint x="380" y="230" />
            </Array>
          </mxGeometry>
        </mxCell>
        <mxCell id="3FL0h8J0QItbjly5wemY-24" value="No" style="edgeLabel;html=1;align=center;verticalAlign=middle;resizable=0;points=[];" parent="3FL0h8J0QItbjly5wemY-23" vertex="1" connectable="0">
          <mxGeometry x="-0.0453" y="-1" relative="1" as="geometry">
            <mxPoint as="offset" />
          </mxGeometry>
        </mxCell>
        <mxCell id="3FL0h8J0QItbjly5wemY-47" style="edgeStyle=orthogonalEdgeStyle;rounded=0;orthogonalLoop=1;jettySize=auto;html=1;exitX=0.5;exitY=1;exitDx=0;exitDy=0;entryX=1;entryY=0.5;entryDx=0;entryDy=0;" parent="1" source="3FL0h8J0QItbjly5wemY-21" target="3FL0h8J0QItbjly5wemY-46" edge="1">
          <mxGeometry relative="1" as="geometry" />
        </mxCell>
        <mxCell id="3FL0h8J0QItbjly5wemY-52" value="Yes" style="edgeLabel;html=1;align=center;verticalAlign=middle;resizable=0;points=[];" parent="3FL0h8J0QItbjly5wemY-47" vertex="1" connectable="0">
          <mxGeometry x="0.2341" y="-1" relative="1" as="geometry">
            <mxPoint as="offset" />
          </mxGeometry>
        </mxCell>
        <mxCell id="3FL0h8J0QItbjly5wemY-21" value="Is valid?" style="rhombus;" parent="1" vertex="1">
          <mxGeometry x="445" y="490.93" width="70" height="69.07" as="geometry" />
        </mxCell>
        <mxCell id="3FL0h8J0QItbjly5wemY-25" style="edgeStyle=orthogonalEdgeStyle;rounded=0;orthogonalLoop=1;jettySize=auto;html=1;exitX=0.769;exitY=0.892;exitDx=0;exitDy=0;entryX=0.5;entryY=0;entryDx=0;entryDy=0;exitPerimeter=0;" parent="1" source="3FL0h8J0QItbjly5wemY-17" target="3FL0h8J0QItbjly5wemY-19" edge="1">
          <mxGeometry relative="1" as="geometry">
            <mxPoint x="580" y="330" as="sourcePoint" />
            <mxPoint x="580" y="380" as="targetPoint" />
          </mxGeometry>
        </mxCell>
        <mxCell id="3FL0h8J0QItbjly5wemY-26" style="edgeStyle=orthogonalEdgeStyle;rounded=0;orthogonalLoop=1;jettySize=auto;html=1;exitX=0.662;exitY=0.067;exitDx=0;exitDy=0;entryX=0.5;entryY=0;entryDx=0;entryDy=0;exitPerimeter=0;" parent="1" source="3FL0h8J0QItbjly5wemY-17" target="3FL0h8J0QItbjly5wemY-20" edge="1">
          <mxGeometry relative="1" as="geometry">
            <mxPoint x="490" y="381" as="sourcePoint" />
            <mxPoint x="490" y="430" as="targetPoint" />
          </mxGeometry>
        </mxCell>
        <mxCell id="3FL0h8J0QItbjly5wemY-30" style="edgeStyle=orthogonalEdgeStyle;rounded=0;orthogonalLoop=1;jettySize=auto;html=1;exitX=0.5;exitY=1;exitDx=0;exitDy=0;entryX=0.5;entryY=0;entryDx=0;entryDy=0;" parent="1" source="3FL0h8J0QItbjly5wemY-27" target="3FL0h8J0QItbjly5wemY-29" edge="1">
          <mxGeometry relative="1" as="geometry" />
        </mxCell>
        <mxCell id="3FL0h8J0QItbjly5wemY-27" value="Password Reset Link" style="rounded=1;whiteSpace=wrap;html=1;" parent="1" vertex="1">
          <mxGeometry x="640" y="490.93" width="80" height="40" as="geometry" />
        </mxCell>
        <mxCell id="3FL0h8J0QItbjly5wemY-33" style="edgeStyle=orthogonalEdgeStyle;rounded=0;orthogonalLoop=1;jettySize=auto;html=1;exitX=0.5;exitY=1;exitDx=0;exitDy=0;entryX=0.5;entryY=0;entryDx=0;entryDy=0;" parent="1" source="3FL0h8J0QItbjly5wemY-29" target="3FL0h8J0QItbjly5wemY-32" edge="1">
          <mxGeometry relative="1" as="geometry" />
        </mxCell>
        <mxCell id="3FL0h8J0QItbjly5wemY-29" value="Enter New Password" style="rounded=1;whiteSpace=wrap;html=1;" parent="1" vertex="1">
          <mxGeometry x="640" y="560" width="80" height="40" as="geometry" />
        </mxCell>
        <mxCell id="3FL0h8J0QItbjly5wemY-34" style="edgeStyle=orthogonalEdgeStyle;rounded=0;orthogonalLoop=1;jettySize=auto;html=1;exitX=0;exitY=0.5;exitDx=0;exitDy=0;entryX=0;entryY=0.5;entryDx=0;entryDy=0;" parent="1" source="3FL0h8J0QItbjly5wemY-32" target="3FL0h8J0QItbjly5wemY-29" edge="1">
          <mxGeometry relative="1" as="geometry">
            <Array as="points">
              <mxPoint x="600" y="665" />
              <mxPoint x="600" y="580" />
            </Array>
          </mxGeometry>
        </mxCell>
        <mxCell id="3FL0h8J0QItbjly5wemY-35" value="Not Satisfied" style="edgeLabel;html=1;align=center;verticalAlign=middle;resizable=0;points=[];" parent="3FL0h8J0QItbjly5wemY-34" vertex="1" connectable="0">
          <mxGeometry x="0.0356" y="2" relative="1" as="geometry">
            <mxPoint y="-1" as="offset" />
          </mxGeometry>
        </mxCell>
        <mxCell id="3FL0h8J0QItbjly5wemY-37" style="edgeStyle=orthogonalEdgeStyle;rounded=0;orthogonalLoop=1;jettySize=auto;html=1;exitX=0.5;exitY=1;exitDx=0;exitDy=0;entryX=0.5;entryY=0;entryDx=0;entryDy=0;" parent="1" source="3FL0h8J0QItbjly5wemY-32" target="3FL0h8J0QItbjly5wemY-36" edge="1">
          <mxGeometry relative="1" as="geometry" />
        </mxCell>
        <mxCell id="3FL0h8J0QItbjly5wemY-54" value="Satisfied" style="edgeLabel;html=1;align=center;verticalAlign=middle;resizable=0;points=[];" parent="3FL0h8J0QItbjly5wemY-37" vertex="1" connectable="0">
          <mxGeometry x="-0.1981" y="-1" relative="1" as="geometry">
            <mxPoint as="offset" />
          </mxGeometry>
        </mxCell>
        <mxCell id="3FL0h8J0QItbjly5wemY-32" value="Check &#xa;constraints" style="rhombus;" parent="1" vertex="1">
          <mxGeometry x="635" y="620" width="90" height="90" as="geometry" />
        </mxCell>
        <mxCell id="3FL0h8J0QItbjly5wemY-39" style="edgeStyle=orthogonalEdgeStyle;rounded=0;orthogonalLoop=1;jettySize=auto;html=1;exitX=0.5;exitY=1;exitDx=0;exitDy=0;entryX=0.5;entryY=0;entryDx=0;entryDy=0;" parent="1" source="3FL0h8J0QItbjly5wemY-36" target="3FL0h8J0QItbjly5wemY-38" edge="1">
          <mxGeometry relative="1" as="geometry" />
        </mxCell>
        <mxCell id="3FL0h8J0QItbjly5wemY-36" value="Re-enter Password" style="rounded=1;whiteSpace=wrap;html=1;" parent="1" vertex="1">
          <mxGeometry x="640" y="750" width="80" height="40" as="geometry" />
        </mxCell>
        <mxCell id="3FL0h8J0QItbjly5wemY-40" style="edgeStyle=orthogonalEdgeStyle;rounded=0;orthogonalLoop=1;jettySize=auto;html=1;exitX=0;exitY=0.5;exitDx=0;exitDy=0;entryX=0;entryY=0.5;entryDx=0;entryDy=0;" parent="1" source="3FL0h8J0QItbjly5wemY-38" target="3FL0h8J0QItbjly5wemY-36" edge="1">
          <mxGeometry relative="1" as="geometry">
            <Array as="points">
              <mxPoint x="600" y="855" />
              <mxPoint x="600" y="770" />
            </Array>
          </mxGeometry>
        </mxCell>
        <mxCell id="3FL0h8J0QItbjly5wemY-41" value="No" style="edgeLabel;html=1;align=center;verticalAlign=middle;resizable=0;points=[];" parent="3FL0h8J0QItbjly5wemY-40" vertex="1" connectable="0">
          <mxGeometry x="-0.0001" y="2" relative="1" as="geometry">
            <mxPoint y="-1" as="offset" />
          </mxGeometry>
        </mxCell>
        <mxCell id="3FL0h8J0QItbjly5wemY-43" style="edgeStyle=orthogonalEdgeStyle;rounded=0;orthogonalLoop=1;jettySize=auto;html=1;exitX=0.5;exitY=1;exitDx=0;exitDy=0;entryX=0.5;entryY=0;entryDx=0;entryDy=0;" parent="1" source="3FL0h8J0QItbjly5wemY-38" target="3FL0h8J0QItbjly5wemY-42" edge="1">
          <mxGeometry relative="1" as="geometry" />
        </mxCell>
        <mxCell id="3FL0h8J0QItbjly5wemY-44" value="Yes" style="edgeLabel;html=1;align=center;verticalAlign=middle;resizable=0;points=[];" parent="3FL0h8J0QItbjly5wemY-43" vertex="1" connectable="0">
          <mxGeometry x="-0.2941" y="-1" relative="1" as="geometry">
            <mxPoint y="3" as="offset" />
          </mxGeometry>
        </mxCell>
        <mxCell id="3FL0h8J0QItbjly5wemY-38" value="Is &#xa;matching?" style="rhombus;" parent="1" vertex="1">
          <mxGeometry x="633.75" y="810" width="92.5" height="90" as="geometry" />
        </mxCell>
        <mxCell id="3FL0h8J0QItbjly5wemY-45" style="edgeStyle=orthogonalEdgeStyle;rounded=0;orthogonalLoop=1;jettySize=auto;html=1;exitX=0;exitY=0.5;exitDx=0;exitDy=0;entryX=1;entryY=0.5;entryDx=0;entryDy=0;" parent="1" source="3FL0h8J0QItbjly5wemY-42" target="3FL0h8J0QItbjly5wemY-19" edge="1">
          <mxGeometry relative="1" as="geometry">
            <Array as="points">
              <mxPoint x="560" y="960" />
              <mxPoint x="560" y="440" />
            </Array>
          </mxGeometry>
        </mxCell>
        <mxCell id="3FL0h8J0QItbjly5wemY-42" value="Confirm Password" style="rounded=1;whiteSpace=wrap;html=1;" parent="1" vertex="1">
          <mxGeometry x="640" y="940" width="80" height="40" as="geometry" />
        </mxCell>
        <mxCell id="3FL0h8J0QItbjly5wemY-51" style="edgeStyle=orthogonalEdgeStyle;rounded=0;orthogonalLoop=1;jettySize=auto;html=1;exitX=0.5;exitY=1;exitDx=0;exitDy=0;entryX=0.5;entryY=0;entryDx=0;entryDy=0;" parent="1" source="3FL0h8J0QItbjly5wemY-46" target="3FL0h8J0QItbjly5wemY-50" edge="1">
          <mxGeometry relative="1" as="geometry" />
        </mxCell>
        <mxCell id="3FL0h8J0QItbjly5wemY-46" value="" style="rhombus;" parent="1" vertex="1">
          <mxGeometry x="165" y="670" width="30" height="30" as="geometry" />
        </mxCell>
        <mxCell id="3FL0h8J0QItbjly5wemY-50" value="1" style="ellipse;" parent="1" vertex="1">
          <mxGeometry x="165" y="720" width="30" height="30" as="geometry" />
        </mxCell>
        <mxCell id="3FL0h8J0QItbjly5wemY-55" value="1" style="ellipse;" parent="1" vertex="1">
          <mxGeometry x="410" y="-1080" width="30" height="30" as="geometry" />
        </mxCell>
        <mxCell id="3FL0h8J0QItbjly5wemY-56" value="" style="html=1;points=[];perimeter=orthogonalPerimeter;fillColor=strokeColor;rotation=-90;" parent="1" vertex="1">
          <mxGeometry x="420" y="-1310" width="5" height="640" as="geometry" />
        </mxCell>
        <mxCell id="3FL0h8J0QItbjly5wemY-57" style="edgeStyle=orthogonalEdgeStyle;rounded=0;orthogonalLoop=1;jettySize=auto;html=1;exitX=0.5;exitY=1;exitDx=0;exitDy=0;entryX=0.562;entryY=0.504;entryDx=0;entryDy=0;entryPerimeter=0;" parent="1" source="3FL0h8J0QItbjly5wemY-55" target="3FL0h8J0QItbjly5wemY-56" edge="1">
          <mxGeometry relative="1" as="geometry" />
        </mxCell>
        <mxCell id="3FL0h8J0QItbjly5wemY-63" style="edgeStyle=orthogonalEdgeStyle;rounded=0;orthogonalLoop=1;jettySize=auto;html=1;exitX=0.5;exitY=1;exitDx=0;exitDy=0;entryX=0.5;entryY=0;entryDx=0;entryDy=0;" parent="1" source="3FL0h8J0QItbjly5wemY-58" target="3FL0h8J0QItbjly5wemY-59" edge="1">
          <mxGeometry relative="1" as="geometry">
            <mxPoint x="155.39130434782624" y="-860" as="targetPoint" />
          </mxGeometry>
        </mxCell>
        <mxCell id="3FL0h8J0QItbjly5wemY-58" value="Search by faculty/college name" style="rounded=1;whiteSpace=wrap;html=1;" parent="1" vertex="1">
          <mxGeometry x="105" y="-950" width="100" height="50" as="geometry" />
        </mxCell>
        <mxCell id="3FL0h8J0QItbjly5wemY-61" style="edgeStyle=orthogonalEdgeStyle;rounded=0;orthogonalLoop=1;jettySize=auto;html=1;exitX=0;exitY=0.5;exitDx=0;exitDy=0;entryX=0;entryY=0.5;entryDx=0;entryDy=0;" parent="1" source="3FL0h8J0QItbjly5wemY-59" target="3FL0h8J0QItbjly5wemY-58" edge="1">
          <mxGeometry relative="1" as="geometry">
            <Array as="points">
              <mxPoint x="60" y="-830" />
              <mxPoint x="60" y="-915" />
              <mxPoint x="105" y="-915" />
            </Array>
          </mxGeometry>
        </mxCell>
        <mxCell id="3FL0h8J0QItbjly5wemY-62" value="No" style="edgeLabel;html=1;align=center;verticalAlign=middle;resizable=0;points=[];" parent="3FL0h8J0QItbjly5wemY-61" vertex="1" connectable="0">
          <mxGeometry x="0.1147" y="1" relative="1" as="geometry">
            <mxPoint as="offset" />
          </mxGeometry>
        </mxCell>
        <mxCell id="3FL0h8J0QItbjly5wemY-64" style="edgeStyle=orthogonalEdgeStyle;rounded=0;orthogonalLoop=1;jettySize=auto;html=1;exitX=0.5;exitY=1;exitDx=0;exitDy=0;entryX=0.437;entryY=0.515;entryDx=0;entryDy=0;entryPerimeter=0;" parent="1" source="3FL0h8J0QItbjly5wemY-59" target="3FL0h8J0QItbjly5wemY-66" edge="1">
          <mxGeometry relative="1" as="geometry">
            <mxPoint x="155.39130434782624" y="-730" as="targetPoint" />
          </mxGeometry>
        </mxCell>
        <mxCell id="3FL0h8J0QItbjly5wemY-65" value="Yes" style="edgeLabel;html=1;align=center;verticalAlign=middle;resizable=0;points=[];" parent="3FL0h8J0QItbjly5wemY-64" vertex="1" connectable="0">
          <mxGeometry x="-0.1362" y="1" relative="1" as="geometry">
            <mxPoint as="offset" />
          </mxGeometry>
        </mxCell>
        <mxCell id="3FL0h8J0QItbjly5wemY-59" value="Got results?" style="rhombus;" parent="1" vertex="1">
          <mxGeometry x="115" y="-870" width="80" height="80" as="geometry" />
        </mxCell>
        <mxCell id="3FL0h8J0QItbjly5wemY-66" value="" style="html=1;points=[];perimeter=orthogonalPerimeter;fillColor=strokeColor;rotation=-90;" parent="1" vertex="1">
          <mxGeometry x="148.91" y="-850" width="5" height="194.68" as="geometry" />
        </mxCell>
        <mxCell id="3FL0h8J0QItbjly5wemY-71" style="edgeStyle=orthogonalEdgeStyle;rounded=0;orthogonalLoop=1;jettySize=auto;html=1;exitX=0.5;exitY=1;exitDx=0;exitDy=0;entryX=0.5;entryY=0;entryDx=0;entryDy=0;" parent="1" source="3FL0h8J0QItbjly5wemY-67" target="3FL0h8J0QItbjly5wemY-68" edge="1">
          <mxGeometry relative="1" as="geometry" />
        </mxCell>
        <mxCell id="3FL0h8J0QItbjly5wemY-67" value="Apply filters&lt;br&gt;(By field/location/years of experience)" style="rounded=1;whiteSpace=wrap;html=1;" parent="1" vertex="1">
          <mxGeometry x="150" y="-730" width="130" height="70" as="geometry" />
        </mxCell>
        <mxCell id="3FL0h8J0QItbjly5wemY-69" style="edgeStyle=orthogonalEdgeStyle;rounded=0;orthogonalLoop=1;jettySize=auto;html=1;exitX=1;exitY=0.5;exitDx=0;exitDy=0;entryX=1;entryY=0.5;entryDx=0;entryDy=0;" parent="1" source="3FL0h8J0QItbjly5wemY-68" target="3FL0h8J0QItbjly5wemY-67" edge="1">
          <mxGeometry relative="1" as="geometry">
            <mxPoint x="340" y="-700" as="targetPoint" />
            <Array as="points">
              <mxPoint x="300" y="-600" />
              <mxPoint x="300" y="-695" />
            </Array>
          </mxGeometry>
        </mxCell>
        <mxCell id="3FL0h8J0QItbjly5wemY-70" value="No" style="edgeLabel;html=1;align=center;verticalAlign=middle;resizable=0;points=[];" parent="3FL0h8J0QItbjly5wemY-69" vertex="1" connectable="0">
          <mxGeometry x="0.0732" y="1" relative="1" as="geometry">
            <mxPoint as="offset" />
          </mxGeometry>
        </mxCell>
        <mxCell id="3FL0h8J0QItbjly5wemY-74" style="edgeStyle=orthogonalEdgeStyle;rounded=0;orthogonalLoop=1;jettySize=auto;html=1;exitX=0.5;exitY=1;exitDx=0;exitDy=0;entryX=1;entryY=0.5;entryDx=0;entryDy=0;" parent="1" source="3FL0h8J0QItbjly5wemY-68" target="3FL0h8J0QItbjly5wemY-72" edge="1">
          <mxGeometry relative="1" as="geometry">
            <mxPoint x="140" y="-507.65" as="targetPoint" />
          </mxGeometry>
        </mxCell>
        <mxCell id="3FL0h8J0QItbjly5wemY-75" value="Yes" style="edgeLabel;html=1;align=center;verticalAlign=middle;resizable=0;points=[];" parent="3FL0h8J0QItbjly5wemY-74" vertex="1" connectable="0">
          <mxGeometry x="0.0395" y="-1" relative="1" as="geometry">
            <mxPoint x="-8" as="offset" />
          </mxGeometry>
        </mxCell>
        <mxCell id="3FL0h8J0QItbjly5wemY-68" value="Got results?" style="rhombus;" parent="1" vertex="1">
          <mxGeometry x="175" y="-640" width="80" height="80" as="geometry" />
        </mxCell>
        <mxCell id="3FL0h8J0QItbjly5wemY-80" style="edgeStyle=orthogonalEdgeStyle;rounded=0;orthogonalLoop=1;jettySize=auto;html=1;exitX=0.5;exitY=1;exitDx=0;exitDy=0;entryX=0.5;entryY=0;entryDx=0;entryDy=0;" parent="1" source="3FL0h8J0QItbjly5wemY-72" target="3FL0h8J0QItbjly5wemY-79" edge="1">
          <mxGeometry relative="1" as="geometry" />
        </mxCell>
        <mxCell id="3FL0h8J0QItbjly5wemY-72" value="" style="rhombus;" parent="1" vertex="1">
          <mxGeometry x="140" y="-550" width="30" height="30" as="geometry" />
        </mxCell>
        <mxCell id="3FL0h8J0QItbjly5wemY-76" style="edgeStyle=orthogonalEdgeStyle;rounded=0;orthogonalLoop=1;jettySize=auto;html=1;exitX=0.146;exitY=0.818;exitDx=0;exitDy=0;entryX=0.5;entryY=0;entryDx=0;entryDy=0;exitPerimeter=0;" parent="1" source="3FL0h8J0QItbjly5wemY-66" target="3FL0h8J0QItbjly5wemY-67" edge="1">
          <mxGeometry relative="1" as="geometry">
            <mxPoint x="135" y="-862.65" as="targetPoint" />
            <mxPoint x="214.2862500000001" y="-749.085" as="sourcePoint" />
          </mxGeometry>
        </mxCell>
        <mxCell id="3FL0h8J0QItbjly5wemY-77" style="edgeStyle=orthogonalEdgeStyle;rounded=0;orthogonalLoop=1;jettySize=auto;html=1;exitX=0.244;exitY=0.111;exitDx=0;exitDy=0;entryX=0;entryY=0.5;entryDx=0;entryDy=0;exitPerimeter=0;" parent="1" source="3FL0h8J0QItbjly5wemY-66" target="3FL0h8J0QItbjly5wemY-72" edge="1">
          <mxGeometry relative="1" as="geometry">
            <mxPoint x="175" y="-852.65" as="targetPoint" />
            <mxPoint x="175" y="-882.65" as="sourcePoint" />
            <Array as="points">
              <mxPoint x="76" y="-535" />
            </Array>
          </mxGeometry>
        </mxCell>
        <mxCell id="3FL0h8J0QItbjly5wemY-78" style="edgeStyle=orthogonalEdgeStyle;rounded=0;orthogonalLoop=1;jettySize=auto;html=1;exitX=0.5;exitY=0.082;exitDx=0;exitDy=0;entryX=0.5;entryY=0;entryDx=0;entryDy=0;exitPerimeter=0;" parent="1" source="3FL0h8J0QItbjly5wemY-56" target="3FL0h8J0QItbjly5wemY-58" edge="1">
          <mxGeometry relative="1" as="geometry">
            <mxPoint x="185" y="-820" as="targetPoint" />
            <mxPoint x="185" y="-850" as="sourcePoint" />
          </mxGeometry>
        </mxCell>
        <mxCell id="3FL0h8J0QItbjly5wemY-83" style="edgeStyle=orthogonalEdgeStyle;rounded=0;orthogonalLoop=1;jettySize=auto;html=1;exitX=0.5;exitY=1;exitDx=0;exitDy=0;entryX=0.5;entryY=0;entryDx=0;entryDy=0;" parent="1" source="3FL0h8J0QItbjly5wemY-79" target="3FL0h8J0QItbjly5wemY-81" edge="1">
          <mxGeometry relative="1" as="geometry" />
        </mxCell>
        <mxCell id="3FL0h8J0QItbjly5wemY-79" value="View Profile" style="rounded=1;whiteSpace=wrap;html=1;" parent="1" vertex="1">
          <mxGeometry x="115" y="-497.35" width="80" height="40" as="geometry" />
        </mxCell>
        <mxCell id="3FL0h8J0QItbjly5wemY-84" style="edgeStyle=orthogonalEdgeStyle;rounded=0;orthogonalLoop=1;jettySize=auto;html=1;exitX=0.5;exitY=1;exitDx=0;exitDy=0;entryX=0.5;entryY=0;entryDx=0;entryDy=0;" parent="1" source="3FL0h8J0QItbjly5wemY-81" target="3FL0h8J0QItbjly5wemY-82" edge="1">
          <mxGeometry relative="1" as="geometry" />
        </mxCell>
        <mxCell id="3FL0h8J0QItbjly5wemY-81" value="Send email" style="rounded=1;whiteSpace=wrap;html=1;" parent="1" vertex="1">
          <mxGeometry x="115" y="-430" width="80" height="40" as="geometry" />
        </mxCell>
        <mxCell id="3FL0h8J0QItbjly5wemY-82" value="Re-direct to Gmail page&amp;nbsp;" style="rounded=1;whiteSpace=wrap;html=1;" parent="1" vertex="1">
          <mxGeometry x="115" y="-360" width="80" height="40" as="geometry" />
        </mxCell>
        <mxCell id="3FL0h8J0QItbjly5wemY-88" style="edgeStyle=orthogonalEdgeStyle;rounded=0;orthogonalLoop=1;jettySize=auto;html=1;exitX=0.5;exitY=1;exitDx=0;exitDy=0;entryX=0.5;entryY=0;entryDx=0;entryDy=0;" parent="1" source="3FL0h8J0QItbjly5wemY-85" target="3FL0h8J0QItbjly5wemY-87" edge="1">
          <mxGeometry relative="1" as="geometry" />
        </mxCell>
        <mxCell id="3FL0h8J0QItbjly5wemY-85" value="Sign-In/Up" style="rounded=1;whiteSpace=wrap;html=1;" parent="1" vertex="1">
          <mxGeometry x="385" y="-945" width="80" height="40" as="geometry" />
        </mxCell>
        <mxCell id="3FL0h8J0QItbjly5wemY-86" style="edgeStyle=orthogonalEdgeStyle;rounded=0;orthogonalLoop=1;jettySize=auto;html=1;exitX=0.3;exitY=0.504;exitDx=0;exitDy=0;entryX=0.5;entryY=0;entryDx=0;entryDy=0;exitPerimeter=0;" parent="1" source="3FL0h8J0QItbjly5wemY-56" target="3FL0h8J0QItbjly5wemY-85" edge="1">
          <mxGeometry relative="1" as="geometry">
            <mxPoint x="165" y="-940" as="targetPoint" />
            <mxPoint x="165" y="-980" as="sourcePoint" />
          </mxGeometry>
        </mxCell>
        <mxCell id="3FL0h8J0QItbjly5wemY-87" value="2" style="ellipse;" parent="1" vertex="1">
          <mxGeometry x="410" y="-865" width="30" height="30" as="geometry" />
        </mxCell>
        <mxCell id="3FL0h8J0QItbjly5wemY-90" style="edgeStyle=orthogonalEdgeStyle;rounded=0;orthogonalLoop=1;jettySize=auto;html=1;exitX=0.391;exitY=0.911;exitDx=0;exitDy=0;entryX=0.5;entryY=0;entryDx=0;entryDy=0;exitPerimeter=0;" parent="1" source="3FL0h8J0QItbjly5wemY-56" target="3FL0h8J0QItbjly5wemY-91" edge="1">
          <mxGeometry relative="1" as="geometry">
            <mxPoint x="685" y="-944.9999999999999" as="targetPoint" />
            <mxPoint x="435" y="-979" as="sourcePoint" />
          </mxGeometry>
        </mxCell>
        <mxCell id="3FL0h8J0QItbjly5wemY-93" style="edgeStyle=orthogonalEdgeStyle;rounded=0;orthogonalLoop=1;jettySize=auto;html=1;exitX=0;exitY=0.5;exitDx=0;exitDy=0;entryX=1;entryY=0.5;entryDx=0;entryDy=0;" parent="1" source="3FL0h8J0QItbjly5wemY-91" target="3FL0h8J0QItbjly5wemY-87" edge="1">
          <mxGeometry relative="1" as="geometry" />
        </mxCell>
        <mxCell id="3FL0h8J0QItbjly5wemY-94" value="No" style="edgeLabel;html=1;align=center;verticalAlign=middle;resizable=0;points=[];" parent="3FL0h8J0QItbjly5wemY-93" vertex="1" connectable="0">
          <mxGeometry x="-0.5469" y="1" relative="1" as="geometry">
            <mxPoint x="-44" y="27" as="offset" />
          </mxGeometry>
        </mxCell>
        <mxCell id="3FL0h8J0QItbjly5wemY-99" style="edgeStyle=orthogonalEdgeStyle;rounded=0;orthogonalLoop=1;jettySize=auto;html=1;exitX=0.5;exitY=1;exitDx=0;exitDy=0;entryX=0.5;entryY=0;entryDx=0;entryDy=0;" parent="1" source="3FL0h8J0QItbjly5wemY-91" target="3FL0h8J0QItbjly5wemY-98" edge="1">
          <mxGeometry relative="1" as="geometry" />
        </mxCell>
        <mxCell id="3FL0h8J0QItbjly5wemY-100" value="Yes" style="edgeLabel;html=1;align=center;verticalAlign=middle;resizable=0;points=[];" parent="3FL0h8J0QItbjly5wemY-99" vertex="1" connectable="0">
          <mxGeometry x="-0.1669" y="-1" relative="1" as="geometry">
            <mxPoint as="offset" />
          </mxGeometry>
        </mxCell>
        <mxCell id="3FL0h8J0QItbjly5wemY-91" value="Signed-In?" style="rhombus;" parent="1" vertex="1">
          <mxGeometry x="645" y="-945" width="80" height="80" as="geometry" />
        </mxCell>
        <mxCell id="3FL0h8J0QItbjly5wemY-102" style="edgeStyle=orthogonalEdgeStyle;rounded=0;orthogonalLoop=1;jettySize=auto;html=1;exitX=0.5;exitY=1;exitDx=0;exitDy=0;entryX=0.5;entryY=0;entryDx=0;entryDy=0;" parent="1" source="3FL0h8J0QItbjly5wemY-98" target="3FL0h8J0QItbjly5wemY-101" edge="1">
          <mxGeometry relative="1" as="geometry" />
        </mxCell>
        <mxCell id="3FL0h8J0QItbjly5wemY-98" value="View profile" style="rounded=1;whiteSpace=wrap;html=1;" parent="1" vertex="1">
          <mxGeometry x="645" y="-790" width="80" height="40" as="geometry" />
        </mxCell>
        <mxCell id="3FL0h8J0QItbjly5wemY-101" value="3" style="ellipse;" parent="1" vertex="1">
          <mxGeometry x="670" y="-710" width="30" height="30" as="geometry" />
        </mxCell>
        <mxCell id="3FL0h8J0QItbjly5wemY-105" style="edgeStyle=orthogonalEdgeStyle;rounded=0;orthogonalLoop=1;jettySize=auto;html=1;exitX=0.5;exitY=1;exitDx=0;exitDy=0;entryX=0.5;entryY=0;entryDx=0;entryDy=0;" parent="1" source="3FL0h8J0QItbjly5wemY-103" target="3FL0h8J0QItbjly5wemY-104" edge="1">
          <mxGeometry relative="1" as="geometry" />
        </mxCell>
        <mxCell id="3FL0h8J0QItbjly5wemY-103" value="3" style="ellipse;" parent="1" vertex="1">
          <mxGeometry x="410" y="1130" width="30" height="30" as="geometry" />
        </mxCell>
        <mxCell id="3FL0h8J0QItbjly5wemY-109" style="edgeStyle=orthogonalEdgeStyle;rounded=0;orthogonalLoop=1;jettySize=auto;html=1;exitX=0;exitY=0.5;exitDx=0;exitDy=0;entryX=0.5;entryY=0;entryDx=0;entryDy=0;" parent="1" source="3FL0h8J0QItbjly5wemY-104" target="3FL0h8J0QItbjly5wemY-107" edge="1">
          <mxGeometry relative="1" as="geometry" />
        </mxCell>
        <mxCell id="3FL0h8J0QItbjly5wemY-111" value="Faculty" style="edgeLabel;html=1;align=center;verticalAlign=middle;resizable=0;points=[];" parent="3FL0h8J0QItbjly5wemY-109" vertex="1" connectable="0">
          <mxGeometry x="-0.0985" y="2" relative="1" as="geometry">
            <mxPoint as="offset" />
          </mxGeometry>
        </mxCell>
        <mxCell id="3FL0h8J0QItbjly5wemY-110" style="edgeStyle=orthogonalEdgeStyle;rounded=0;orthogonalLoop=1;jettySize=auto;html=1;exitX=1;exitY=0.5;exitDx=0;exitDy=0;entryX=0.5;entryY=0;entryDx=0;entryDy=0;" parent="1" source="3FL0h8J0QItbjly5wemY-104" target="3FL0h8J0QItbjly5wemY-108" edge="1">
          <mxGeometry relative="1" as="geometry" />
        </mxCell>
        <mxCell id="3FL0h8J0QItbjly5wemY-112" value="Admin" style="edgeLabel;html=1;align=center;verticalAlign=middle;resizable=0;points=[];" parent="3FL0h8J0QItbjly5wemY-110" vertex="1" connectable="0">
          <mxGeometry x="-0.1948" y="-1" relative="1" as="geometry">
            <mxPoint x="1" as="offset" />
          </mxGeometry>
        </mxCell>
        <mxCell id="3FL0h8J0QItbjly5wemY-104" value="" style="rhombus;" parent="1" vertex="1">
          <mxGeometry x="410" y="1190" width="30" height="30" as="geometry" />
        </mxCell>
        <mxCell id="3FL0h8J0QItbjly5wemY-107" value="Faculty&lt;br&gt;Profile" style="rounded=1;whiteSpace=wrap;html=1;" parent="1" vertex="1">
          <mxGeometry x="165" y="1260" width="80" height="40" as="geometry" />
        </mxCell>
        <mxCell id="3FL0h8J0QItbjly5wemY-108" value="Admin&lt;br&gt;Profile" style="rounded=1;whiteSpace=wrap;html=1;" parent="1" vertex="1">
          <mxGeometry x="610" y="1260" width="80" height="40" as="geometry" />
        </mxCell>
        <mxCell id="3FL0h8J0QItbjly5wemY-114" value="" style="html=1;points=[];perimeter=orthogonalPerimeter;fillColor=strokeColor;rotation=-90;" parent="1" vertex="1">
          <mxGeometry x="203.75" y="1218.75" width="5" height="262.5" as="geometry" />
        </mxCell>
        <mxCell id="3FL0h8J0QItbjly5wemY-115" style="edgeStyle=orthogonalEdgeStyle;rounded=0;orthogonalLoop=1;jettySize=auto;html=1;exitX=0.5;exitY=1;exitDx=0;exitDy=0;entryX=0.559;entryY=0.492;entryDx=0;entryDy=0;entryPerimeter=0;" parent="1" source="3FL0h8J0QItbjly5wemY-107" target="3FL0h8J0QItbjly5wemY-114" edge="1">
          <mxGeometry relative="1" as="geometry">
            <mxPoint x="206" y="1350" as="targetPoint" />
          </mxGeometry>
        </mxCell>
        <mxCell id="3FL0h8J0QItbjly5wemY-116" value="Edit profile" style="rounded=1;whiteSpace=wrap;html=1;" parent="1" vertex="1">
          <mxGeometry x="151" y="1391" width="65" height="29" as="geometry" />
        </mxCell>
        <mxCell id="3FL0h8J0QItbjly5wemY-128" style="edgeStyle=orthogonalEdgeStyle;rounded=0;orthogonalLoop=1;jettySize=auto;html=1;exitX=0.5;exitY=1;exitDx=0;exitDy=0;entryX=0.5;entryY=0;entryDx=0;entryDy=0;" parent="1" source="3FL0h8J0QItbjly5wemY-117" target="3FL0h8J0QItbjly5wemY-129" edge="1">
          <mxGeometry relative="1" as="geometry">
            <mxPoint x="97.66" y="1469.0699999999997" as="targetPoint" />
          </mxGeometry>
        </mxCell>
        <mxCell id="3FL0h8J0QItbjly5wemY-117" value="Remove profile" style="rounded=1;whiteSpace=wrap;html=1;" parent="1" vertex="1">
          <mxGeometry x="60.91" y="1530" width="73.51" height="40" as="geometry" />
        </mxCell>
        <mxCell id="3FL0h8J0QItbjly5wemY-160" style="edgeStyle=orthogonalEdgeStyle;rounded=0;orthogonalLoop=1;jettySize=auto;html=1;exitX=0.5;exitY=1;exitDx=0;exitDy=0;entryX=0.5;entryY=0;entryDx=0;entryDy=0;" parent="1" source="3FL0h8J0QItbjly5wemY-118" target="3FL0h8J0QItbjly5wemY-157" edge="1">
          <mxGeometry relative="1" as="geometry" />
        </mxCell>
        <mxCell id="3FL0h8J0QItbjly5wemY-118" value="Change password" style="rounded=1;whiteSpace=wrap;html=1;" parent="1" vertex="1">
          <mxGeometry x="244" y="1390" width="70" height="30" as="geometry" />
        </mxCell>
        <mxCell id="3FL0h8J0QItbjly5wemY-119" style="edgeStyle=orthogonalEdgeStyle;rounded=0;orthogonalLoop=1;jettySize=auto;html=1;entryX=0.5;entryY=0;entryDx=0;entryDy=0;exitX=0.598;exitY=0.409;exitDx=0;exitDy=0;exitPerimeter=0;" parent="1" source="3FL0h8J0QItbjly5wemY-114" target="3FL0h8J0QItbjly5wemY-116" edge="1">
          <mxGeometry relative="1" as="geometry">
            <mxPoint x="184.365" y="1351.0000000000005" as="sourcePoint" />
            <mxPoint x="316" y="1351" as="targetPoint" />
          </mxGeometry>
        </mxCell>
        <mxCell id="3FL0h8J0QItbjly5wemY-120" style="edgeStyle=orthogonalEdgeStyle;rounded=0;orthogonalLoop=1;jettySize=auto;html=1;exitX=0.003;exitY=0.084;exitDx=0;exitDy=0;entryX=0.5;entryY=0;entryDx=0;entryDy=0;exitPerimeter=0;" parent="1" source="3FL0h8J0QItbjly5wemY-114" target="3FL0h8J0QItbjly5wemY-117" edge="1">
          <mxGeometry relative="1" as="geometry">
            <mxPoint x="97.39500000000012" y="1351" as="sourcePoint" />
            <mxPoint x="115.16" y="1370" as="targetPoint" />
          </mxGeometry>
        </mxCell>
        <mxCell id="3FL0h8J0QItbjly5wemY-121" style="edgeStyle=orthogonalEdgeStyle;rounded=0;orthogonalLoop=1;jettySize=auto;html=1;exitX=0.1;exitY=0.962;exitDx=0;exitDy=0;entryX=0.5;entryY=0;entryDx=0;entryDy=0;exitPerimeter=0;" parent="1" target="3FL0h8J0QItbjly5wemY-118" edge="1">
          <mxGeometry relative="1" as="geometry">
            <mxPoint x="283.93000000000006" y="1352" as="sourcePoint" />
            <mxPoint x="189" y="1380" as="targetPoint" />
          </mxGeometry>
        </mxCell>
        <mxCell id="3FL0h8J0QItbjly5wemY-123" style="edgeStyle=orthogonalEdgeStyle;rounded=0;orthogonalLoop=1;jettySize=auto;html=1;exitX=0.5;exitY=0;exitDx=0;exitDy=0;entryX=0.5;entryY=1;entryDx=0;entryDy=0;" parent="1" source="3FL0h8J0QItbjly5wemY-122" target="3FL0h8J0QItbjly5wemY-116" edge="1">
          <mxGeometry relative="1" as="geometry" />
        </mxCell>
        <mxCell id="3FL0h8J0QItbjly5wemY-124" style="edgeStyle=orthogonalEdgeStyle;rounded=0;orthogonalLoop=1;jettySize=auto;html=1;exitX=0;exitY=0.5;exitDx=0;exitDy=0;entryX=0;entryY=0.5;entryDx=0;entryDy=0;" parent="1" source="3FL0h8J0QItbjly5wemY-122" target="3FL0h8J0QItbjly5wemY-116" edge="1">
          <mxGeometry relative="1" as="geometry" />
        </mxCell>
        <mxCell id="3FL0h8J0QItbjly5wemY-125" value="No" style="edgeLabel;html=1;align=center;verticalAlign=middle;resizable=0;points=[];" parent="3FL0h8J0QItbjly5wemY-124" vertex="1" connectable="0">
          <mxGeometry x="0.0456" relative="1" as="geometry">
            <mxPoint as="offset" />
          </mxGeometry>
        </mxCell>
        <mxCell id="3FL0h8J0QItbjly5wemY-155" style="edgeStyle=orthogonalEdgeStyle;rounded=0;orthogonalLoop=1;jettySize=auto;html=1;exitX=0.5;exitY=1;exitDx=0;exitDy=0;entryX=0.5;entryY=0;entryDx=0;entryDy=0;" parent="1" source="3FL0h8J0QItbjly5wemY-122" target="3FL0h8J0QItbjly5wemY-154" edge="1">
          <mxGeometry relative="1" as="geometry" />
        </mxCell>
        <mxCell id="3FL0h8J0QItbjly5wemY-156" value="Yes" style="edgeLabel;html=1;align=center;verticalAlign=middle;resizable=0;points=[];" parent="3FL0h8J0QItbjly5wemY-155" vertex="1" connectable="0">
          <mxGeometry x="-0.1062" relative="1" as="geometry">
            <mxPoint as="offset" />
          </mxGeometry>
        </mxCell>
        <mxCell id="3FL0h8J0QItbjly5wemY-122" value="Confirm?" style="rhombus;" parent="1" vertex="1">
          <mxGeometry x="148.5" y="1450" width="70" height="49" as="geometry" />
        </mxCell>
        <mxCell id="3FL0h8J0QItbjly5wemY-129" value="Send acceptance mail to admin" style="rounded=1;whiteSpace=wrap;html=1;" parent="1" vertex="1">
          <mxGeometry x="51.41" y="1626.5" width="92.5" height="50" as="geometry" />
        </mxCell>
        <mxCell id="3FL0h8J0QItbjly5wemY-131" value="" style="html=1;points=[];perimeter=orthogonalPerimeter;fillColor=strokeColor;rotation=-90;" parent="1" vertex="1">
          <mxGeometry x="140" y="1641" width="5" height="166.5" as="geometry" />
        </mxCell>
        <mxCell id="3FL0h8J0QItbjly5wemY-136" style="edgeStyle=orthogonalEdgeStyle;rounded=0;orthogonalLoop=1;jettySize=auto;html=1;exitX=0;exitY=0.5;exitDx=0;exitDy=0;entryX=0;entryY=0.75;entryDx=0;entryDy=0;" parent="1" source="3FL0h8J0QItbjly5wemY-134" target="3FL0h8J0QItbjly5wemY-107" edge="1">
          <mxGeometry relative="1" as="geometry">
            <Array as="points">
              <mxPoint x="20" y="1810" />
              <mxPoint x="20" y="1290" />
            </Array>
          </mxGeometry>
        </mxCell>
        <mxCell id="3FL0h8J0QItbjly5wemY-137" value="Yes" style="edgeLabel;html=1;align=center;verticalAlign=middle;resizable=0;points=[];" parent="3FL0h8J0QItbjly5wemY-136" vertex="1" connectable="0">
          <mxGeometry x="-0.1577" y="2" relative="1" as="geometry">
            <mxPoint as="offset" />
          </mxGeometry>
        </mxCell>
        <mxCell id="3FL0h8J0QItbjly5wemY-147" style="edgeStyle=orthogonalEdgeStyle;rounded=0;orthogonalLoop=1;jettySize=auto;html=1;exitX=0.5;exitY=1;exitDx=0;exitDy=0;entryX=0.5;entryY=0;entryDx=0;entryDy=0;" parent="1" source="3FL0h8J0QItbjly5wemY-134" target="3FL0h8J0QItbjly5wemY-145" edge="1">
          <mxGeometry relative="1" as="geometry" />
        </mxCell>
        <mxCell id="3FL0h8J0QItbjly5wemY-149" value="No" style="edgeLabel;html=1;align=center;verticalAlign=middle;resizable=0;points=[];" parent="3FL0h8J0QItbjly5wemY-147" vertex="1" connectable="0">
          <mxGeometry x="-0.2828" relative="1" as="geometry">
            <mxPoint as="offset" />
          </mxGeometry>
        </mxCell>
        <mxCell id="3FL0h8J0QItbjly5wemY-134" value="Cancel &#xa;process?" style="rhombus;" parent="1" vertex="1">
          <mxGeometry x="30" y="1782" width="90" height="56.5" as="geometry" />
        </mxCell>
        <mxCell id="3FL0h8J0QItbjly5wemY-135" style="edgeStyle=orthogonalEdgeStyle;rounded=0;orthogonalLoop=1;jettySize=auto;html=1;exitX=0.041;exitY=0.09;exitDx=0;exitDy=0;entryX=0.5;entryY=0;entryDx=0;entryDy=0;exitPerimeter=0;" parent="1" source="3FL0h8J0QItbjly5wemY-131" target="3FL0h8J0QItbjly5wemY-134" edge="1">
          <mxGeometry relative="1" as="geometry">
            <mxPoint x="107" y="1512.78" as="sourcePoint" />
            <mxPoint x="108" y="1560.78" as="targetPoint" />
          </mxGeometry>
        </mxCell>
        <mxCell id="3FL0h8J0QItbjly5wemY-138" style="edgeStyle=orthogonalEdgeStyle;rounded=0;orthogonalLoop=1;jettySize=auto;html=1;exitX=0.5;exitY=1;exitDx=0;exitDy=0;entryX=0.91;entryY=0.233;entryDx=0;entryDy=0;entryPerimeter=0;" parent="1" source="3FL0h8J0QItbjly5wemY-129" target="3FL0h8J0QItbjly5wemY-131" edge="1">
          <mxGeometry relative="1" as="geometry" />
        </mxCell>
        <mxCell id="3FL0h8J0QItbjly5wemY-143" style="edgeStyle=orthogonalEdgeStyle;rounded=0;orthogonalLoop=1;jettySize=auto;html=1;exitX=0.5;exitY=1;exitDx=0;exitDy=0;entryX=0.5;entryY=0;entryDx=0;entryDy=0;" parent="1" source="3FL0h8J0QItbjly5wemY-139" target="3FL0h8J0QItbjly5wemY-142" edge="1">
          <mxGeometry relative="1" as="geometry" />
        </mxCell>
        <mxCell id="3FL0h8J0QItbjly5wemY-144" value="Accepted" style="edgeLabel;html=1;align=center;verticalAlign=middle;resizable=0;points=[];" parent="3FL0h8J0QItbjly5wemY-143" vertex="1" connectable="0">
          <mxGeometry x="-0.008" y="-1" relative="1" as="geometry">
            <mxPoint as="offset" />
          </mxGeometry>
        </mxCell>
        <mxCell id="IKQgTQutBXIy749l_pFC-58" style="edgeStyle=orthogonalEdgeStyle;rounded=0;orthogonalLoop=1;jettySize=auto;html=1;exitX=1;exitY=0.5;exitDx=0;exitDy=0;entryX=0;entryY=0.75;entryDx=0;entryDy=0;" edge="1" parent="1" source="3FL0h8J0QItbjly5wemY-139" target="3FL0h8J0QItbjly5wemY-107">
          <mxGeometry relative="1" as="geometry">
            <Array as="points">
              <mxPoint x="260" y="1810" />
              <mxPoint x="260" y="2020" />
              <mxPoint x="20" y="2020" />
              <mxPoint x="20" y="1290" />
            </Array>
          </mxGeometry>
        </mxCell>
        <mxCell id="IKQgTQutBXIy749l_pFC-59" value="Denied" style="edgeLabel;html=1;align=center;verticalAlign=middle;resizable=0;points=[];" vertex="1" connectable="0" parent="IKQgTQutBXIy749l_pFC-58">
          <mxGeometry x="-0.5184" relative="1" as="geometry">
            <mxPoint as="offset" />
          </mxGeometry>
        </mxCell>
        <mxCell id="3FL0h8J0QItbjly5wemY-139" value="Wait for &#xa;acceptance" style="rhombus;" parent="1" vertex="1">
          <mxGeometry x="133.91" y="1777" width="105" height="66.5" as="geometry" />
        </mxCell>
        <mxCell id="3FL0h8J0QItbjly5wemY-140" style="edgeStyle=orthogonalEdgeStyle;rounded=0;orthogonalLoop=1;jettySize=auto;html=1;entryX=0.5;entryY=0;entryDx=0;entryDy=0;exitX=0.636;exitY=0.767;exitDx=0;exitDy=0;exitPerimeter=0;" parent="1" source="3FL0h8J0QItbjly5wemY-131" target="3FL0h8J0QItbjly5wemY-139" edge="1">
          <mxGeometry relative="1" as="geometry">
            <mxPoint x="183" y="1724" as="sourcePoint" />
            <mxPoint x="85" y="1734.78" as="targetPoint" />
          </mxGeometry>
        </mxCell>
        <mxCell id="3FL0h8J0QItbjly5wemY-146" style="edgeStyle=orthogonalEdgeStyle;rounded=0;orthogonalLoop=1;jettySize=auto;html=1;exitX=0;exitY=0.5;exitDx=0;exitDy=0;entryX=1;entryY=0.5;entryDx=0;entryDy=0;" parent="1" source="3FL0h8J0QItbjly5wemY-142" target="3FL0h8J0QItbjly5wemY-145" edge="1">
          <mxGeometry relative="1" as="geometry" />
        </mxCell>
        <mxCell id="3FL0h8J0QItbjly5wemY-142" value="Profile deleted" style="rounded=1;whiteSpace=wrap;html=1;" parent="1" vertex="1">
          <mxGeometry x="153.91" y="1891" width="65" height="29" as="geometry" />
        </mxCell>
        <mxCell id="3FL0h8J0QItbjly5wemY-150" style="edgeStyle=orthogonalEdgeStyle;rounded=0;orthogonalLoop=1;jettySize=auto;html=1;exitX=0.5;exitY=1;exitDx=0;exitDy=0;entryX=0.5;entryY=0;entryDx=0;entryDy=0;" parent="1" source="3FL0h8J0QItbjly5wemY-145" target="3FL0h8J0QItbjly5wemY-148" edge="1">
          <mxGeometry relative="1" as="geometry" />
        </mxCell>
        <mxCell id="3FL0h8J0QItbjly5wemY-145" value="" style="rhombus;" parent="1" vertex="1">
          <mxGeometry x="60" y="1890" width="30" height="30" as="geometry" />
        </mxCell>
        <mxCell id="3FL0h8J0QItbjly5wemY-148" value="" style="shape=sumEllipse;perimeter=ellipsePerimeter;html=1;backgroundOutline=1;" parent="1" vertex="1">
          <mxGeometry x="60" y="1960" width="30" height="30" as="geometry" />
        </mxCell>
        <mxCell id="3FL0h8J0QItbjly5wemY-154" value="" style="shape=sumEllipse;perimeter=ellipsePerimeter;html=1;backgroundOutline=1;" parent="1" vertex="1">
          <mxGeometry x="168.5" y="1560" width="30" height="30" as="geometry" />
        </mxCell>
        <mxCell id="3FL0h8J0QItbjly5wemY-161" style="edgeStyle=orthogonalEdgeStyle;rounded=0;orthogonalLoop=1;jettySize=auto;html=1;exitX=0.5;exitY=1;exitDx=0;exitDy=0;entryX=0.5;entryY=0;entryDx=0;entryDy=0;" parent="1" source="3FL0h8J0QItbjly5wemY-157" target="3FL0h8J0QItbjly5wemY-158" edge="1">
          <mxGeometry relative="1" as="geometry" />
        </mxCell>
        <mxCell id="3FL0h8J0QItbjly5wemY-157" value="Enter old password" style="rounded=1;whiteSpace=wrap;html=1;" parent="1" vertex="1">
          <mxGeometry x="244" y="1442.5" width="70" height="30" as="geometry" />
        </mxCell>
        <mxCell id="3FL0h8J0QItbjly5wemY-162" style="edgeStyle=orthogonalEdgeStyle;rounded=0;orthogonalLoop=1;jettySize=auto;html=1;exitX=0.5;exitY=1;exitDx=0;exitDy=0;entryX=0.5;entryY=0;entryDx=0;entryDy=0;" parent="1" source="3FL0h8J0QItbjly5wemY-158" target="3FL0h8J0QItbjly5wemY-159" edge="1">
          <mxGeometry relative="1" as="geometry" />
        </mxCell>
        <mxCell id="3FL0h8J0QItbjly5wemY-158" value="Enter new password" style="rounded=1;whiteSpace=wrap;html=1;" parent="1" vertex="1">
          <mxGeometry x="244" y="1499" width="70" height="30" as="geometry" />
        </mxCell>
        <mxCell id="3FL0h8J0QItbjly5wemY-164" style="edgeStyle=orthogonalEdgeStyle;rounded=0;orthogonalLoop=1;jettySize=auto;html=1;exitX=0.5;exitY=1;exitDx=0;exitDy=0;entryX=0.5;entryY=0;entryDx=0;entryDy=0;" parent="1" source="3FL0h8J0QItbjly5wemY-159" target="3FL0h8J0QItbjly5wemY-163" edge="1">
          <mxGeometry relative="1" as="geometry" />
        </mxCell>
        <mxCell id="3FL0h8J0QItbjly5wemY-159" value="Re-enter new password" style="rounded=1;whiteSpace=wrap;html=1;" parent="1" vertex="1">
          <mxGeometry x="239" y="1550" width="80" height="30" as="geometry" />
        </mxCell>
        <mxCell id="3FL0h8J0QItbjly5wemY-165" value="No" style="edgeStyle=orthogonalEdgeStyle;rounded=0;orthogonalLoop=1;jettySize=auto;html=1;exitX=1;exitY=0.5;exitDx=0;exitDy=0;entryX=1;entryY=0.5;entryDx=0;entryDy=0;" parent="1" source="3FL0h8J0QItbjly5wemY-163" target="3FL0h8J0QItbjly5wemY-118" edge="1">
          <mxGeometry relative="1" as="geometry">
            <Array as="points">
              <mxPoint x="344" y="1627" />
              <mxPoint x="344" y="1405" />
            </Array>
          </mxGeometry>
        </mxCell>
        <mxCell id="3FL0h8J0QItbjly5wemY-166" value="no" style="edgeLabel;html=1;align=center;verticalAlign=middle;resizable=0;points=[];" parent="3FL0h8J0QItbjly5wemY-165" vertex="1" connectable="0">
          <mxGeometry x="0.0146" relative="1" as="geometry">
            <mxPoint as="offset" />
          </mxGeometry>
        </mxCell>
        <mxCell id="3FL0h8J0QItbjly5wemY-168" style="edgeStyle=orthogonalEdgeStyle;rounded=0;orthogonalLoop=1;jettySize=auto;html=1;exitX=0.5;exitY=1;exitDx=0;exitDy=0;entryX=0.5;entryY=0;entryDx=0;entryDy=0;" parent="1" source="3FL0h8J0QItbjly5wemY-163" target="3FL0h8J0QItbjly5wemY-167" edge="1">
          <mxGeometry relative="1" as="geometry" />
        </mxCell>
        <mxCell id="3FL0h8J0QItbjly5wemY-169" value="Yes" style="edgeLabel;html=1;align=center;verticalAlign=middle;resizable=0;points=[];" parent="3FL0h8J0QItbjly5wemY-168" vertex="1" connectable="0">
          <mxGeometry x="-0.1795" relative="1" as="geometry">
            <mxPoint as="offset" />
          </mxGeometry>
        </mxCell>
        <mxCell id="3FL0h8J0QItbjly5wemY-163" value="Valid?" style="rhombus;" parent="1" vertex="1">
          <mxGeometry x="244" y="1604" width="67.5" height="46" as="geometry" />
        </mxCell>
        <mxCell id="3FL0h8J0QItbjly5wemY-171" style="edgeStyle=orthogonalEdgeStyle;rounded=0;orthogonalLoop=1;jettySize=auto;html=1;exitX=0.5;exitY=1;exitDx=0;exitDy=0;entryX=0.5;entryY=0;entryDx=0;entryDy=0;" parent="1" source="3FL0h8J0QItbjly5wemY-167" target="3FL0h8J0QItbjly5wemY-170" edge="1">
          <mxGeometry relative="1" as="geometry" />
        </mxCell>
        <mxCell id="3FL0h8J0QItbjly5wemY-167" value="Password changed" style="rounded=1;whiteSpace=wrap;html=1;" parent="1" vertex="1">
          <mxGeometry x="242.75" y="1689" width="70" height="30" as="geometry" />
        </mxCell>
        <mxCell id="3FL0h8J0QItbjly5wemY-170" value="" style="shape=sumEllipse;perimeter=ellipsePerimeter;html=1;backgroundOutline=1;" parent="1" vertex="1">
          <mxGeometry x="264" y="1750" width="30" height="30" as="geometry" />
        </mxCell>
        <mxCell id="3FL0h8J0QItbjly5wemY-278" value="" style="html=1;points=[];perimeter=orthogonalPerimeter;fillColor=strokeColor;rotation=-90;" parent="1" vertex="1">
          <mxGeometry x="596.62" y="1174.38" width="5" height="351.25" as="geometry" />
        </mxCell>
        <mxCell id="3FL0h8J0QItbjly5wemY-280" style="edgeStyle=orthogonalEdgeStyle;rounded=0;orthogonalLoop=1;jettySize=auto;html=1;exitX=0.5;exitY=1;exitDx=0;exitDy=0;" parent="1" source="3FL0h8J0QItbjly5wemY-108" edge="1">
          <mxGeometry relative="1" as="geometry">
            <mxPoint x="649" y="1350" as="targetPoint" />
          </mxGeometry>
        </mxCell>
        <mxCell id="3FL0h8J0QItbjly5wemY-283" style="edgeStyle=orthogonalEdgeStyle;rounded=0;orthogonalLoop=1;jettySize=auto;html=1;exitX=0.5;exitY=1;exitDx=0;exitDy=0;entryX=0.5;entryY=0;entryDx=0;entryDy=0;" parent="1" source="3FL0h8J0QItbjly5wemY-281" target="3FL0h8J0QItbjly5wemY-282" edge="1">
          <mxGeometry relative="1" as="geometry" />
        </mxCell>
        <mxCell id="3FL0h8J0QItbjly5wemY-281" value="Add college" style="rounded=1;whiteSpace=wrap;html=1;" parent="1" vertex="1">
          <mxGeometry x="411" y="1381" width="65" height="29" as="geometry" />
        </mxCell>
        <mxCell id="3FL0h8J0QItbjly5wemY-285" style="edgeStyle=orthogonalEdgeStyle;rounded=0;orthogonalLoop=1;jettySize=auto;html=1;exitX=0;exitY=0.5;exitDx=0;exitDy=0;entryX=0;entryY=0.5;entryDx=0;entryDy=0;" parent="1" source="3FL0h8J0QItbjly5wemY-282" target="3FL0h8J0QItbjly5wemY-281" edge="1">
          <mxGeometry relative="1" as="geometry" />
        </mxCell>
        <mxCell id="3FL0h8J0QItbjly5wemY-286" value="Not &lt;br&gt;aprroved" style="edgeLabel;html=1;align=center;verticalAlign=middle;resizable=0;points=[];" parent="3FL0h8J0QItbjly5wemY-285" vertex="1" connectable="0">
          <mxGeometry x="-0.0737" y="1" relative="1" as="geometry">
            <mxPoint as="offset" />
          </mxGeometry>
        </mxCell>
        <mxCell id="3FL0h8J0QItbjly5wemY-287" style="edgeStyle=orthogonalEdgeStyle;rounded=0;orthogonalLoop=1;jettySize=auto;html=1;exitX=0.5;exitY=1;exitDx=0;exitDy=0;entryX=0.5;entryY=0;entryDx=0;entryDy=0;" parent="1" source="3FL0h8J0QItbjly5wemY-282" target="3FL0h8J0QItbjly5wemY-289" edge="1">
          <mxGeometry relative="1" as="geometry">
            <mxPoint x="444" y="1500" as="targetPoint" />
          </mxGeometry>
        </mxCell>
        <mxCell id="3FL0h8J0QItbjly5wemY-288" value="Approved" style="edgeLabel;html=1;align=center;verticalAlign=middle;resizable=0;points=[];" parent="3FL0h8J0QItbjly5wemY-287" vertex="1" connectable="0">
          <mxGeometry x="-0.1021" relative="1" as="geometry">
            <mxPoint as="offset" />
          </mxGeometry>
        </mxCell>
        <mxCell id="3FL0h8J0QItbjly5wemY-282" value="approval" style="rhombus;" parent="1" vertex="1">
          <mxGeometry x="406.62" y="1442.5" width="73.75" height="36.5" as="geometry" />
        </mxCell>
        <mxCell id="3FL0h8J0QItbjly5wemY-284" style="edgeStyle=orthogonalEdgeStyle;rounded=0;orthogonalLoop=1;jettySize=auto;html=1;exitX=-0.219;exitY=0.056;exitDx=0;exitDy=0;entryX=0.5;entryY=0;entryDx=0;entryDy=0;exitPerimeter=0;" parent="1" source="3FL0h8J0QItbjly5wemY-278" target="3FL0h8J0QItbjly5wemY-281" edge="1">
          <mxGeometry relative="1" as="geometry">
            <mxPoint x="291" y="1362" as="sourcePoint" />
            <mxPoint x="286" y="1400" as="targetPoint" />
          </mxGeometry>
        </mxCell>
        <mxCell id="3FL0h8J0QItbjly5wemY-289" value="" style="shape=sumEllipse;perimeter=ellipsePerimeter;html=1;backgroundOutline=1;" parent="1" vertex="1">
          <mxGeometry x="428.51" y="1520" width="30" height="30" as="geometry" />
        </mxCell>
        <mxCell id="3FL0h8J0QItbjly5wemY-292" style="edgeStyle=orthogonalEdgeStyle;rounded=0;orthogonalLoop=1;jettySize=auto;html=1;exitX=0.5;exitY=1;exitDx=0;exitDy=0;entryX=0.5;entryY=0.461;entryDx=0;entryDy=0;entryPerimeter=0;" parent="1" source="3FL0h8J0QItbjly5wemY-290" target="IKQgTQutBXIy749l_pFC-1" edge="1">
          <mxGeometry relative="1" as="geometry">
            <mxPoint x="558.5" y="1515" as="targetPoint" />
          </mxGeometry>
        </mxCell>
        <mxCell id="3FL0h8J0QItbjly5wemY-290" value="Select college" style="rounded=1;whiteSpace=wrap;html=1;" parent="1" vertex="1">
          <mxGeometry x="526" y="1453.5" width="65" height="29" as="geometry" />
        </mxCell>
        <mxCell id="IKQgTQutBXIy749l_pFC-1" value="" style="html=1;points=[];perimeter=orthogonalPerimeter;fillColor=strokeColor;rotation=-90;" vertex="1" parent="1">
          <mxGeometry x="566.5" y="1458.5" width="5" height="271" as="geometry" />
        </mxCell>
        <mxCell id="IKQgTQutBXIy749l_pFC-5" style="edgeStyle=orthogonalEdgeStyle;rounded=0;orthogonalLoop=1;jettySize=auto;html=1;exitX=0.5;exitY=1;exitDx=0;exitDy=0;entryX=0.5;entryY=0;entryDx=0;entryDy=0;" edge="1" parent="1" source="IKQgTQutBXIy749l_pFC-2" target="IKQgTQutBXIy749l_pFC-3">
          <mxGeometry relative="1" as="geometry" />
        </mxCell>
        <mxCell id="IKQgTQutBXIy749l_pFC-2" value="Add faculty" style="rounded=1;whiteSpace=wrap;html=1;" vertex="1" parent="1">
          <mxGeometry x="428.51" y="1626.5" width="65" height="29" as="geometry" />
        </mxCell>
        <mxCell id="IKQgTQutBXIy749l_pFC-6" style="edgeStyle=orthogonalEdgeStyle;rounded=0;orthogonalLoop=1;jettySize=auto;html=1;exitX=0.5;exitY=1;exitDx=0;exitDy=0;entryX=0.5;entryY=0;entryDx=0;entryDy=0;" edge="1" parent="1" source="IKQgTQutBXIy749l_pFC-3" target="IKQgTQutBXIy749l_pFC-4">
          <mxGeometry relative="1" as="geometry" />
        </mxCell>
        <mxCell id="IKQgTQutBXIy749l_pFC-7" value="Yes" style="edgeLabel;html=1;align=center;verticalAlign=middle;resizable=0;points=[];" vertex="1" connectable="0" parent="IKQgTQutBXIy749l_pFC-6">
          <mxGeometry x="-0.1866" relative="1" as="geometry">
            <mxPoint as="offset" />
          </mxGeometry>
        </mxCell>
        <mxCell id="IKQgTQutBXIy749l_pFC-10" style="edgeStyle=orthogonalEdgeStyle;rounded=0;orthogonalLoop=1;jettySize=auto;html=1;exitX=0;exitY=0.5;exitDx=0;exitDy=0;entryX=0;entryY=0.5;entryDx=0;entryDy=0;" edge="1" parent="1" source="IKQgTQutBXIy749l_pFC-3" target="IKQgTQutBXIy749l_pFC-8">
          <mxGeometry relative="1" as="geometry" />
        </mxCell>
        <mxCell id="IKQgTQutBXIy749l_pFC-11" value="No" style="edgeLabel;html=1;align=center;verticalAlign=middle;resizable=0;points=[];" vertex="1" connectable="0" parent="IKQgTQutBXIy749l_pFC-10">
          <mxGeometry x="-0.0104" y="-1" relative="1" as="geometry">
            <mxPoint y="-1" as="offset" />
          </mxGeometry>
        </mxCell>
        <mxCell id="IKQgTQutBXIy749l_pFC-3" value="Faculty &#xa;approval?" style="rhombus;" vertex="1" parent="1">
          <mxGeometry x="412.58" y="1710" width="96.86" height="67" as="geometry" />
        </mxCell>
        <mxCell id="IKQgTQutBXIy749l_pFC-9" style="edgeStyle=orthogonalEdgeStyle;rounded=0;orthogonalLoop=1;jettySize=auto;html=1;exitX=0.5;exitY=1;exitDx=0;exitDy=0;entryX=0;entryY=0.5;entryDx=0;entryDy=0;" edge="1" parent="1" source="IKQgTQutBXIy749l_pFC-4" target="IKQgTQutBXIy749l_pFC-8">
          <mxGeometry relative="1" as="geometry" />
        </mxCell>
        <mxCell id="IKQgTQutBXIy749l_pFC-4" value="Send login credentials&amp;nbsp;" style="rounded=1;whiteSpace=wrap;html=1;" vertex="1" parent="1">
          <mxGeometry x="424.76" y="1830" width="72.49" height="40" as="geometry" />
        </mxCell>
        <mxCell id="IKQgTQutBXIy749l_pFC-8" value="" style="shape=sumEllipse;perimeter=ellipsePerimeter;html=1;backgroundOutline=1;" vertex="1" parent="1">
          <mxGeometry x="546.3" y="1920" width="30" height="30" as="geometry" />
        </mxCell>
        <mxCell id="IKQgTQutBXIy749l_pFC-16" style="edgeStyle=orthogonalEdgeStyle;rounded=0;orthogonalLoop=1;jettySize=auto;html=1;exitX=0.5;exitY=1;exitDx=0;exitDy=0;entryX=0.5;entryY=0;entryDx=0;entryDy=0;" edge="1" parent="1" source="IKQgTQutBXIy749l_pFC-12" target="IKQgTQutBXIy749l_pFC-13">
          <mxGeometry relative="1" as="geometry" />
        </mxCell>
        <mxCell id="IKQgTQutBXIy749l_pFC-12" value="Drop faculty" style="rounded=1;whiteSpace=wrap;html=1;" vertex="1" parent="1">
          <mxGeometry x="528.8" y="1626.5" width="65" height="29" as="geometry" />
        </mxCell>
        <mxCell id="IKQgTQutBXIy749l_pFC-18" style="edgeStyle=orthogonalEdgeStyle;rounded=0;orthogonalLoop=1;jettySize=auto;html=1;exitX=0.5;exitY=1;exitDx=0;exitDy=0;entryX=0.5;entryY=0;entryDx=0;entryDy=0;" edge="1" parent="1" source="IKQgTQutBXIy749l_pFC-13" target="IKQgTQutBXIy749l_pFC-8">
          <mxGeometry relative="1" as="geometry" />
        </mxCell>
        <mxCell id="IKQgTQutBXIy749l_pFC-13" value="Send notification" style="rounded=1;whiteSpace=wrap;html=1;" vertex="1" parent="1">
          <mxGeometry x="523.62" y="1780" width="75" height="40.5" as="geometry" />
        </mxCell>
        <mxCell id="IKQgTQutBXIy749l_pFC-17" style="edgeStyle=orthogonalEdgeStyle;rounded=0;orthogonalLoop=1;jettySize=auto;html=1;exitX=0.5;exitY=1;exitDx=0;exitDy=0;entryX=0.5;entryY=0;entryDx=0;entryDy=0;" edge="1" parent="1" source="IKQgTQutBXIy749l_pFC-14" target="IKQgTQutBXIy749l_pFC-15">
          <mxGeometry relative="1" as="geometry" />
        </mxCell>
        <mxCell id="IKQgTQutBXIy749l_pFC-14" value="Drop college" style="rounded=1;whiteSpace=wrap;html=1;" vertex="1" parent="1">
          <mxGeometry x="636" y="1626.5" width="65" height="29" as="geometry" />
        </mxCell>
        <mxCell id="IKQgTQutBXIy749l_pFC-19" style="edgeStyle=orthogonalEdgeStyle;rounded=0;orthogonalLoop=1;jettySize=auto;html=1;exitX=0.5;exitY=1;exitDx=0;exitDy=0;entryX=1;entryY=0.5;entryDx=0;entryDy=0;" edge="1" parent="1" source="IKQgTQutBXIy749l_pFC-15" target="IKQgTQutBXIy749l_pFC-8">
          <mxGeometry relative="1" as="geometry" />
        </mxCell>
        <mxCell id="IKQgTQutBXIy749l_pFC-15" value="Send notification to all faculty&amp;nbsp;" style="rounded=1;whiteSpace=wrap;html=1;" vertex="1" parent="1">
          <mxGeometry x="618.5" y="1733.25" width="100" height="63.5" as="geometry" />
        </mxCell>
        <mxCell id="IKQgTQutBXIy749l_pFC-20" style="edgeStyle=orthogonalEdgeStyle;rounded=0;orthogonalLoop=1;jettySize=auto;html=1;exitX=0.122;exitY=0.099;exitDx=0;exitDy=0;entryX=0.5;entryY=0;entryDx=0;entryDy=0;exitPerimeter=0;" edge="1" parent="1" source="IKQgTQutBXIy749l_pFC-1" target="IKQgTQutBXIy749l_pFC-2">
          <mxGeometry relative="1" as="geometry">
            <mxPoint x="471" y="1666" as="sourcePoint" />
            <mxPoint x="471" y="1720" as="targetPoint" />
          </mxGeometry>
        </mxCell>
        <mxCell id="IKQgTQutBXIy749l_pFC-21" style="edgeStyle=orthogonalEdgeStyle;rounded=0;orthogonalLoop=1;jettySize=auto;html=1;exitX=0.833;exitY=0.466;exitDx=0;exitDy=0;entryX=0.5;entryY=0;entryDx=0;entryDy=0;exitPerimeter=0;" edge="1" parent="1" source="IKQgTQutBXIy749l_pFC-1" target="IKQgTQutBXIy749l_pFC-12">
          <mxGeometry relative="1" as="geometry">
            <mxPoint x="481" y="1676" as="sourcePoint" />
            <mxPoint x="481" y="1730" as="targetPoint" />
          </mxGeometry>
        </mxCell>
        <mxCell id="IKQgTQutBXIy749l_pFC-22" style="edgeStyle=orthogonalEdgeStyle;rounded=0;orthogonalLoop=1;jettySize=auto;html=1;exitX=0.3;exitY=0.86;exitDx=0;exitDy=0;entryX=0.5;entryY=0;entryDx=0;entryDy=0;exitPerimeter=0;" edge="1" parent="1" source="IKQgTQutBXIy749l_pFC-1" target="IKQgTQutBXIy749l_pFC-14">
          <mxGeometry relative="1" as="geometry">
            <mxPoint x="491" y="1686" as="sourcePoint" />
            <mxPoint x="491" y="1740" as="targetPoint" />
          </mxGeometry>
        </mxCell>
        <mxCell id="IKQgTQutBXIy749l_pFC-23" style="edgeStyle=orthogonalEdgeStyle;rounded=0;orthogonalLoop=1;jettySize=auto;html=1;exitX=0.034;exitY=0.383;exitDx=0;exitDy=0;entryX=0.5;entryY=0;entryDx=0;entryDy=0;exitPerimeter=0;" edge="1" parent="1" source="3FL0h8J0QItbjly5wemY-278" target="3FL0h8J0QItbjly5wemY-290">
          <mxGeometry relative="1" as="geometry">
            <mxPoint x="501" y="1696" as="sourcePoint" />
            <mxPoint x="501" y="1750" as="targetPoint" />
          </mxGeometry>
        </mxCell>
        <mxCell id="IKQgTQutBXIy749l_pFC-43" style="edgeStyle=orthogonalEdgeStyle;rounded=0;orthogonalLoop=1;jettySize=auto;html=1;entryX=0.5;entryY=0;entryDx=0;entryDy=0;" edge="1" parent="1" source="IKQgTQutBXIy749l_pFC-44" target="IKQgTQutBXIy749l_pFC-46">
          <mxGeometry relative="1" as="geometry" />
        </mxCell>
        <mxCell id="IKQgTQutBXIy749l_pFC-44" value="Change password" style="rounded=1;whiteSpace=wrap;html=1;" vertex="1" parent="1">
          <mxGeometry x="716" y="1381" width="70" height="30" as="geometry" />
        </mxCell>
        <mxCell id="IKQgTQutBXIy749l_pFC-45" style="edgeStyle=orthogonalEdgeStyle;rounded=0;orthogonalLoop=1;jettySize=auto;html=1;exitX=0.5;exitY=1;exitDx=0;exitDy=0;entryX=0.5;entryY=0;entryDx=0;entryDy=0;" edge="1" parent="1" source="IKQgTQutBXIy749l_pFC-46" target="IKQgTQutBXIy749l_pFC-48">
          <mxGeometry relative="1" as="geometry" />
        </mxCell>
        <mxCell id="IKQgTQutBXIy749l_pFC-46" value="Enter old password" style="rounded=1;whiteSpace=wrap;html=1;" vertex="1" parent="1">
          <mxGeometry x="716" y="1433.5" width="70" height="30" as="geometry" />
        </mxCell>
        <mxCell id="IKQgTQutBXIy749l_pFC-47" style="edgeStyle=orthogonalEdgeStyle;rounded=0;orthogonalLoop=1;jettySize=auto;html=1;exitX=0.5;exitY=1;exitDx=0;exitDy=0;entryX=0.5;entryY=0;entryDx=0;entryDy=0;" edge="1" parent="1" source="IKQgTQutBXIy749l_pFC-48" target="IKQgTQutBXIy749l_pFC-50">
          <mxGeometry relative="1" as="geometry" />
        </mxCell>
        <mxCell id="IKQgTQutBXIy749l_pFC-48" value="Enter new password" style="rounded=1;whiteSpace=wrap;html=1;" vertex="1" parent="1">
          <mxGeometry x="716" y="1490" width="70" height="30" as="geometry" />
        </mxCell>
        <mxCell id="IKQgTQutBXIy749l_pFC-49" style="edgeStyle=orthogonalEdgeStyle;rounded=0;orthogonalLoop=1;jettySize=auto;html=1;exitX=0.5;exitY=1;exitDx=0;exitDy=0;entryX=0.5;entryY=0;entryDx=0;entryDy=0;" edge="1" parent="1" source="IKQgTQutBXIy749l_pFC-50" target="IKQgTQutBXIy749l_pFC-53">
          <mxGeometry relative="1" as="geometry" />
        </mxCell>
        <mxCell id="IKQgTQutBXIy749l_pFC-50" value="Re-enter new password" style="rounded=1;whiteSpace=wrap;html=1;" vertex="1" parent="1">
          <mxGeometry x="711" y="1541" width="80" height="30" as="geometry" />
        </mxCell>
        <mxCell id="IKQgTQutBXIy749l_pFC-51" style="edgeStyle=orthogonalEdgeStyle;rounded=0;orthogonalLoop=1;jettySize=auto;html=1;exitX=0.5;exitY=1;exitDx=0;exitDy=0;entryX=0.5;entryY=0;entryDx=0;entryDy=0;" edge="1" parent="1" source="IKQgTQutBXIy749l_pFC-53" target="IKQgTQutBXIy749l_pFC-55">
          <mxGeometry relative="1" as="geometry" />
        </mxCell>
        <mxCell id="IKQgTQutBXIy749l_pFC-52" value="Yes" style="edgeLabel;html=1;align=center;verticalAlign=middle;resizable=0;points=[];" vertex="1" connectable="0" parent="IKQgTQutBXIy749l_pFC-51">
          <mxGeometry x="-0.1795" relative="1" as="geometry">
            <mxPoint as="offset" />
          </mxGeometry>
        </mxCell>
        <mxCell id="IKQgTQutBXIy749l_pFC-60" style="edgeStyle=orthogonalEdgeStyle;rounded=0;orthogonalLoop=1;jettySize=auto;html=1;exitX=1;exitY=0.5;exitDx=0;exitDy=0;entryX=1;entryY=0.5;entryDx=0;entryDy=0;" edge="1" parent="1" source="IKQgTQutBXIy749l_pFC-53" target="IKQgTQutBXIy749l_pFC-44">
          <mxGeometry relative="1" as="geometry">
            <Array as="points">
              <mxPoint x="820" y="1618" />
              <mxPoint x="820" y="1396" />
            </Array>
          </mxGeometry>
        </mxCell>
        <mxCell id="IKQgTQutBXIy749l_pFC-61" value="No" style="edgeLabel;html=1;align=center;verticalAlign=middle;resizable=0;points=[];" vertex="1" connectable="0" parent="IKQgTQutBXIy749l_pFC-60">
          <mxGeometry x="-0.3744" relative="1" as="geometry">
            <mxPoint as="offset" />
          </mxGeometry>
        </mxCell>
        <mxCell id="IKQgTQutBXIy749l_pFC-53" value="Valid?" style="rhombus;" vertex="1" parent="1">
          <mxGeometry x="716" y="1595" width="67.5" height="46" as="geometry" />
        </mxCell>
        <mxCell id="IKQgTQutBXIy749l_pFC-54" style="edgeStyle=orthogonalEdgeStyle;rounded=0;orthogonalLoop=1;jettySize=auto;html=1;exitX=0.5;exitY=1;exitDx=0;exitDy=0;entryX=1;entryY=0.5;entryDx=0;entryDy=0;" edge="1" parent="1" source="IKQgTQutBXIy749l_pFC-55" target="IKQgTQutBXIy749l_pFC-8">
          <mxGeometry relative="1" as="geometry">
            <mxPoint x="751" y="1741" as="targetPoint" />
          </mxGeometry>
        </mxCell>
        <mxCell id="IKQgTQutBXIy749l_pFC-55" value="Password changed" style="rounded=1;whiteSpace=wrap;html=1;" vertex="1" parent="1">
          <mxGeometry x="714.75" y="1680" width="70" height="30" as="geometry" />
        </mxCell>
        <mxCell id="IKQgTQutBXIy749l_pFC-57" style="edgeStyle=orthogonalEdgeStyle;rounded=0;orthogonalLoop=1;jettySize=auto;html=1;exitX=0.923;exitY=0.935;exitDx=0;exitDy=0;entryX=0.5;entryY=0;entryDx=0;entryDy=0;exitPerimeter=0;" edge="1" parent="1" source="3FL0h8J0QItbjly5wemY-278" target="IKQgTQutBXIy749l_pFC-44">
          <mxGeometry relative="1" as="geometry">
            <mxPoint x="453" y="1364" as="sourcePoint" />
            <mxPoint x="454" y="1391" as="targetPoint" />
          </mxGeometry>
        </mxCell>
      </root>
    </mxGraphModel>
  </diagram>
</mxfile>
